<?xml version="1.0" standalone="no"?>
<!DOCTYPE svg PUBLIC "-//W3C//DTD SVG 1.0//EN" "http://www.w3.org/TR/2001/REC-SVG-20010904/DTD/svg10.dtd">
<svg xmlns="http://www.w3.org/2000/svg" xmlns:xlink="http://www.w3.org/1999/xlink" id="body_1" width="41" height="31">

<g transform="matrix(0.8039216 0 0 0.81578946 0 0)">
	<g transform="matrix(0.07470936 0 0 0.074221075 6.374999 -0)">
	</g>
    <path transform="matrix(0.07470936 0 0 0.074221075 6.374999 -0)"  d="M30.921 165.122L479.91098 165.122L479.91098 475.14197L30.921 475.14197L30.921 165.122z" stroke="none" fill="#FFCE54" fill-rule="nonzero" />
	<g transform="matrix(0.07470936 0 0 0.074221075 6.374999 -0)">
	</g>
    <path transform="matrix(0.07470936 0 0 0.074221075 6.374999 -0)"  d="M324.682 270.932L418.152 270.932L418.152 467.352L324.682 467.352L324.682 270.932z" stroke="none" fill="#4FC2E9" fill-rule="nonzero" />
	<g transform="matrix(0.07470936 0 0 0.074221075 6.374999 -0)">
	</g>
    <path transform="matrix(0.07470936 0 0 0.074221075 6.374999 -0)"  d="M35.498 36.842L474.748 36.842L474.748 101.653L35.498 101.653L35.498 36.842z" stroke="none" fill="#E6E9ED" fill-rule="nonzero" />
	<g transform="matrix(0.07470936 0 0 0.074221075 6.374999 -0)">
	</g>
    <path transform="matrix(0.07470936 0 0 0.074221075 6.374999 -0)"  d="M84.372 272.022L276.802 272.022L276.802 400.312L84.372 400.312L84.372 272.022z" stroke="none" fill="#4FC2E9" fill-rule="nonzero" />
	<g transform="matrix(0.07470936 0 0 0.074221075 6.374999 -0)">
	</g>
    <path transform="matrix(0.07470936 0 0 0.074221075 6.374999 -0)"  d="M73.684 261.336L73.684 411.003L287.491 411.003L287.491 261.336L73.684 261.336zM266.1 389.613L95.059 389.613L95.059 282.71L266.1 282.71L266.1 389.613z" stroke="none" fill="#F5F7FA" fill-rule="nonzero" />
	<g transform="matrix(0.07470936 0 0 0.074221075 6.374999 -0)">
	</g>
    <path transform="matrix(0.07470936 0 0 0.074221075 6.374999 -0)"  d="M308.865 261.336L308.865 475.142L437.143 475.142L437.143 261.336L308.865 261.336zM415.768 453.767L330.239 453.767L330.239 282.71L415.768 282.71L415.768 453.767z" stroke="none" fill="#F5F7FA" fill-rule="nonzero" />
	<g transform="matrix(0.07470936 0 0 0.074221075 6.374999 -0)">
	</g>
    <path transform="matrix(0.07470936 0 0 0.074221075 6.374999 -0)"  d="M244.648 336.162C 241.679 336.162 239.023 337.365 237.086 339.30298L237.086 339.30298L215.712 360.67596C 213.774 362.61395 212.571 365.28497 212.571 368.23798C 212.571 374.14398 217.368 378.92596 223.274 378.92596C 226.212 378.92596 228.883 377.73798 230.821 375.80096L230.821 375.80096L252.211 354.41095C 254.133 352.48895 255.336 349.80194 255.336 346.86395C 255.336 340.958 250.554 336.162 244.648 336.162z" stroke="none" fill="#3BAFDA" fill-rule="nonzero" />
	<g transform="matrix(0.07470936 0 0 0.074221075 6.374999 -0)">
	</g>
    <path transform="matrix(0.07470936 0 0 0.074221075 6.374999 -0)"  d="M252.211 311.662C 254.133 309.724 255.336 307.05298 255.336 304.09998C 255.336 298.19397 250.555 293.41296 244.648 293.41296C 241.679 293.41296 239.023 294.60095 237.086 296.53796L237.086 296.53796L172.94699 360.67596C 171.00899 362.61395 169.80598 365.28497 169.80598 368.23798C 169.80598 374.14398 174.58699 378.92596 180.49399 378.92596C 183.46298 378.92596 186.11899 377.73798 188.05598 375.80096L188.05598 375.80096L252.211 311.662z" stroke="none" fill="#3BAFDA" fill-rule="nonzero" />
	<g transform="matrix(0.07470936 0 0 0.074221075 6.374999 -0)">
	</g>
    <path transform="matrix(0.07470936 0 0 0.074221075 6.374999 -0)"  d="M418.143 357.552L319.552 357.552C 313.646 357.552 308.864 362.332 308.864 368.239C 308.864 374.14603 313.64502 378.927 319.552 378.927L319.552 378.927L418.143 378.927C 424.049 378.927 428.831 374.146 428.831 368.239C 428.831 362.33203 424.05 357.552 418.143 357.552z" stroke="none" fill="#F5F7FA" fill-rule="nonzero" />
	<g transform="matrix(0.07470936 0 0 0.074221075 6.374999 -0)">
	</g>
    <path transform="matrix(0.07470936 0 0 0.074221075 6.374999 -0)"  d="M450.892 239.961C 484.625 239.961 511.984 212.603 511.984 178.869C 511.984 175.619 511.71802 172.431 511.234 169.323L511.234 169.323L510.89 167.401C 510.828 167.104 510.781 166.807 510.734 166.51L510.734 166.51L475.329 79.605995L387.363 79.605995L402.018 215.52399L404.08002 218.11798C 415.3 231.461 432.096 239.961 450.892 239.961z" stroke="none" fill="#DA4453" fill-rule="nonzero" />
	<g transform="matrix(0.07470936 0 0 0.074221075 6.374999 -0)">
	</g>
    <path transform="matrix(0.07470936 0 0 0.074221075 6.374999 -0)"  d="M299.397 79.606L304.271 215.524C 315.427 230.352 333.176 239.961 353.145 239.961C 373.14398 239.961 390.862 230.352 402.018 215.524L402.018 215.524L387.363 79.606L299.397 79.606z" stroke="none" fill="#E6E9ED" fill-rule="nonzero" />
	<g transform="matrix(0.07470936 0 0 0.074221075 6.374999 -0)">
	</g>
    <path transform="matrix(0.07470936 0 0 0.074221075 6.374999 -0)"  d="M61.076 239.961C 27.343 239.961 0 212.603 0 178.869C 0 175.619 0.249 172.431 0.749 169.323L0.749 169.323L0.733 169.323L1.092 167.401C 1.139 167.104 1.186 166.807 1.248 166.51L1.248 166.51L36.653 79.605995L124.604 79.605995L109.932 215.52399L107.885 218.11798C 96.684 231.461 79.872 239.961 61.076 239.961z" stroke="none" fill="#DA4453" fill-rule="nonzero" />
	<g transform="matrix(0.07470936 0 0 0.074221075 6.374999 -0)">
	</g>
    <path transform="matrix(0.07470936 0 0 0.074221075 6.374999 -0)"  d="M212.571 79.606L207.68 215.524C 196.54 230.352 178.806 239.961 158.80699 239.961C 138.838 239.961 121.08899 230.352 109.93299 215.524L109.93299 215.524L124.60499 79.606L212.571 79.606z" stroke="none" fill="#E6E9ED" fill-rule="nonzero" />
	<g transform="matrix(0.07470936 0 0 0.074221075 6.374999 -0)">
	</g>
    <path transform="matrix(0.07470936 0 0 0.074221075 6.374999 -0)"  d="M211.43 79.606L206.555 215.524C 217.68 230.352 235.43 239.961 255.413 239.961C 275.396 239.961 293.146 230.352 304.27 215.524L304.27 215.524L299.396 79.606L211.43 79.606z" stroke="none" fill="#DA4453" fill-rule="nonzero" />
	<g transform="matrix(0.07470936 0 0 0.074221075 6.374999 -0)">
	</g>
    <path transform="matrix(0.07470936 0 0 0.074221075 6.374999 -0)"  d="M1.186 166.838C 1.155 167.026 1.124 167.213 1.092 167.4L1.092 167.4L0.73300004 169.32199L0.749 169.32199C 0.249 172.431 0 175.618 0 178.868C 0 212.601 27.343 239.95999 61.076 239.95999C 79.872 239.95999 96.684006 231.45999 107.887 218.11699L107.887 218.11699L109.934 215.523L115.2 166.83699L1.186 166.83699L1.186 166.838z" stroke="none" fill="#ED5564" fill-rule="nonzero" />
	<g transform="matrix(0.07470936 0 0 0.074221075 6.374999 -0)">
	</g>
    <path transform="matrix(0.07470936 0 0 0.074221075 6.374999 -0)"  d="M115.199 166.838L109.933 215.524C 121.089 230.352 138.838 239.961 158.807 239.961C 178.806 239.961 196.54001 230.352 207.68001 215.524L207.68001 215.524L209.43001 166.838L115.199 166.838z" stroke="none" fill="#F5F7FA" fill-rule="nonzero" />
	<g transform="matrix(0.07470936 0 0 0.074221075 6.374999 -0)">
	</g>
    <path transform="matrix(0.07470936 0 0 0.074221075 6.374999 -0)"  d="M208.305 166.838L206.555 215.524C 217.68 230.352 235.43 239.961 255.413 239.961C 275.396 239.961 293.146 230.352 304.27 215.524L304.27 215.524L302.521 166.838L208.305 166.838z" stroke="none" fill="#ED5564" fill-rule="nonzero" />
	<g transform="matrix(0.07470936 0 0 0.074221075 6.374999 -0)">
	</g>
    <path transform="matrix(0.07470936 0 0 0.074221075 6.374999 -0)"  d="M302.522 166.838L304.271 215.524C 315.427 230.352 333.176 239.961 353.145 239.961C 373.14398 239.961 390.862 230.352 402.018 215.524L402.018 215.524L396.768 166.838L302.522 166.838z" stroke="none" fill="#F5F7FA" fill-rule="nonzero" />
	<g transform="matrix(0.07470936 0 0 0.074221075 6.374999 -0)">
	</g>
    <path transform="matrix(0.07470936 0 0 0.074221075 6.374999 -0)"  d="M511.234 169.323L510.89 167.401C 510.859 167.213 510.812 167.026 510.781 166.839L510.781 166.839L396.768 166.839L402.018 215.52501L404.08002 218.119C 415.299 231.462 432.096 239.962 450.89203 239.962C 484.62503 239.962 511.98404 212.604 511.98404 178.87001C 511.984 175.619 511.719 172.431 511.234 169.323z" stroke="none" fill="#ED5564" fill-rule="nonzero" />
</g>
</svg>