<?xml version="1.0" standalone="no"?>
<!DOCTYPE svg PUBLIC "-//W3C//DTD SVG 1.0//EN" "http://www.w3.org/TR/2001/REC-SVG-20010904/DTD/svg10.dtd">
<svg xmlns="http://www.w3.org/2000/svg" xmlns:xlink="http://www.w3.org/1999/xlink" id="body_1" width="41" height="31">

<g transform="matrix(0.040039062 0 0 0.040364586 0 0)">
	<g transform="matrix(1.5 0 0 1.5 128.00003 -0)">
	</g>
    <path transform="matrix(1.5 0 0 1.5 128.00003 -0)"  d="M499.725 163.607L260.792 1.473C 257.899 -0.49 254.10199 -0.49099994 251.20898 1.473L251.20898 1.473L12.275 163.607C 9.934999 165.194 8.532999 167.838 8.532999 170.66699L8.532999 170.66699L8.532999 503.46698C 8.532999 508.18 12.353999 511.99997 17.065998 511.99997L17.065998 511.99997L494.933 511.99997C 499.64603 511.99997 503.466 508.17896 503.466 503.46698L503.466 503.46698L503.466 170.66699C 503.467 167.838 502.066 165.194 499.725 163.607z" stroke="none" fill="#F07B52" fill-rule="nonzero" />
	<g transform="matrix(1.5 0 0 1.5 128.00003 -0)">
	</g>
    <path transform="matrix(1.5 0 0 1.5 128.00003 -0)"  d="M34.134 503.467L34.134 170.66702C 34.134 167.83803 35.536 165.19402 37.876 163.60602L37.876 163.60602L268.8 6.907L260.791 1.4720001C 257.89798 -0.49099994 254.10098 -0.49199986 251.20798 1.4720001L251.20798 1.4720001L12.275 163.606C 9.934999 165.194 8.532999 167.839 8.532999 170.667L8.532999 170.667L8.532999 503.46698C 8.532999 508.18 12.353999 511.99997 17.065998 511.99997L17.065998 511.99997L42.666 511.99997C 37.954 512 34.134 508.181 34.134 503.467z" stroke="none" fill="#E5563C" fill-rule="nonzero" />
	<g transform="matrix(1.5 0 0 1.5 128.00003 -0)">
	</g>
    <path transform="matrix(1.5 0 0 1.5 128.00003 -0)"  d="M409.6 204.8L102.4 204.8C 97.687004 204.8 93.867004 208.621 93.867004 213.33301L93.867004 213.33301L93.867004 503.466C 93.867004 508.17902 97.688 511.999 102.4 511.999L102.4 511.999L409.6 511.999C 414.31302 511.999 418.133 508.17798 418.133 503.466L418.133 503.466L418.133 213.334C 418.134 208.621 414.313 204.8 409.6 204.8z" stroke="none" fill="#74757B" fill-rule="nonzero" />
	<g transform="matrix(1.5 0 0 1.5 128.00003 -0)">
	</g>
    <path transform="matrix(1.5 0 0 1.5 128.00003 -0)"  d="M102.4 204.8C 97.687004 204.8 93.867004 208.621 93.867004 213.33301L93.867004 213.33301L93.867004 503.466C 93.867004 508.17902 97.688 511.999 102.4 511.999L102.4 511.999L119.467 511.999L119.467 204.8L102.4 204.8z" stroke="none" fill="#606268" fill-rule="nonzero" />
	<g transform="matrix(1.5 0 0 1.5 128.00003 -0)">
	</g>
    <path transform="matrix(1.5 0 0 1.5 128.00003 -0)"  d="M426.667 170.667L85.334 170.667C 80.621 170.667 76.801 174.488 76.801 179.20001L76.801 179.20001L76.801 213.33301C 76.801 218.046 80.622 221.86601 85.334 221.86601L85.334 221.86601L426.667 221.86601C 431.38 221.86601 435.19998 218.04501 435.19998 213.33301L435.19998 213.33301L435.19998 179.2C 435.2 174.488 431.379 170.667 426.667 170.667z" stroke="none" fill="#C3C4C6" fill-rule="nonzero" />
	<g transform="matrix(1.5 0 0 1.5 128.00003 -0)">
	</g>
    <path transform="matrix(1.5 0 0 1.5 128.00003 -0)"  d="M426.667 204.8L85.334 204.8C 80.621 204.8 76.801 200.979 76.801 196.267L76.801 196.267L76.801 213.334C 76.801 218.047 80.622 221.867 85.334 221.867L85.334 221.867L426.667 221.867C 431.38 221.867 435.19998 218.046 435.19998 213.334L435.19998 213.334L435.19998 196.267C 435.2 200.981 431.379 204.8 426.667 204.8z" stroke="none" fill="#AFB0B4" fill-rule="nonzero" />
	<g transform="matrix(1.5 0 0 1.5 128.00003 -0)">
	</g>
    <path transform="matrix(1.5 0 0 1.5 128.00003 -0)"  d="M290.134 76.8L221.867 76.8C 217.154 76.8 213.334 72.979004 213.334 68.267006C 213.334 63.554005 217.155 59.734005 221.867 59.734005L221.867 59.734005L290.134 59.734005C 294.84702 59.734005 298.667 63.555004 298.667 68.267006C 298.667 72.98 294.846 76.8 290.134 76.8z" stroke="none" fill="#E5563C" fill-rule="nonzero" />
	<g transform="matrix(1.5 0 0 1.5 128.00003 -0)">
	</g>
    <path transform="matrix(1.5 0 0 1.5 128.00003 -0)"  d="M290.134 110.934L221.867 110.934C 217.154 110.934 213.334 107.113 213.334 102.401C 213.334 97.689 217.155 93.868004 221.867 93.868004L221.867 93.868004L290.134 93.868004C 294.84702 93.868004 298.667 97.689 298.667 102.401C 298.667 107.113 294.846 110.934 290.134 110.934z" stroke="none" fill="#E5563C" fill-rule="nonzero" />
	<g transform="matrix(1.5 0 0 1.5 128.00003 -0)">
	</g>
    <path transform="matrix(1.5 0 0 1.5 128.00003 -0)"  d="M290.134 145.067L221.867 145.067C 217.154 145.067 213.334 141.246 213.334 136.534C 213.334 131.821 217.155 128.00099 221.867 128.00099L221.867 128.00099L290.134 128.00099C 294.84702 128.00099 298.667 131.82199 298.667 136.534C 298.667 141.246 294.846 145.067 290.134 145.067z" stroke="none" fill="#E5563C" fill-rule="nonzero" />
	<g transform="matrix(1.5 0 0 1.5 128.00003 -0)">
	</g>
    <path transform="matrix(1.5 0 0 1.5 128.00003 -0)"  d="M204.8 273.067L102.4 273.067C 97.687004 273.067 93.867004 276.888 93.867004 281.59998L93.867004 281.59998L93.867004 384C 93.867004 388.713 97.688 392.533 102.4 392.533L102.4 392.533L153.6 401.06598L204.8 392.533C 209.513 392.533 213.33301 388.71198 213.33301 384L213.33301 384L213.33301 281.6C 213.334 276.888 209.514 273.067 204.8 273.067z" stroke="none" fill="#FDDD85" fill-rule="nonzero" />
	<g transform="matrix(1.5 0 0 1.5 128.00003 -0)">
	</g>
    <path transform="matrix(1.5 0 0 1.5 128.00003 -0)"  d="M204.8 392.534L102.4 392.534C 97.687004 392.534 93.867004 396.355 93.867004 401.067L93.867004 401.067L93.867004 503.46698C 93.867004 508.18 97.688 511.99997 102.4 511.99997L102.4 511.99997L204.8 511.99997C 209.513 511.99997 213.33301 508.17896 213.33301 503.46698L213.33301 503.46698L213.33301 401.067C 213.334 396.355 209.514 392.534 204.8 392.534z" stroke="none" fill="#FDDD85" fill-rule="nonzero" />
	<g transform="matrix(1.5 0 0 1.5 128.00003 -0)">
	</g>
    <path transform="matrix(1.5 0 0 1.5 128.00003 -0)"  d="M110.934 503.467L110.934 401.06702C 110.934 396.354 114.755 392.53403 119.466995 392.53403L119.466995 392.53403L102.4 392.53403C 97.687004 392.53403 93.867004 396.35504 93.867004 401.06702L93.867004 401.06702L93.867004 503.467C 93.867004 508.18002 97.688 512 102.4 512L102.4 512L119.467 512C 114.754 512 110.934 508.181 110.934 503.467z" stroke="none" fill="#FDD042" fill-rule="nonzero" />
	<g transform="matrix(1.5 0 0 1.5 128.00003 -0)">
	</g>
    <path transform="matrix(1.5 0 0 1.5 128.00003 -0)"  d="M170.667 392.534L136.53401 392.534L136.53401 435.2C 136.53401 439.91302 140.35501 443.733 145.06702 443.733L145.06702 443.733L162.13402 443.733C 166.84702 443.733 170.66702 439.912 170.66702 435.2L170.66702 435.2L170.66702 392.534L170.667 392.534z" stroke="none" fill="#F2C127" fill-rule="nonzero" />
	<g transform="matrix(1.5 0 0 1.5 128.00003 -0)">
	</g>
    <path transform="matrix(1.5 0 0 1.5 128.00003 -0)"  d="M170.667 494.934L136.53401 494.934C 131.82101 494.934 128.001 491.11298 128.001 486.401C 128.001 481.68903 131.822 477.868 136.53401 477.868L136.53401 477.868L170.667 477.868C 175.38 477.868 179.20001 481.68903 179.20001 486.401C 179.20001 491.11298 175.38 494.934 170.667 494.934z" stroke="none" fill="#74757B" fill-rule="nonzero" />
	<g transform="matrix(1.5 0 0 1.5 128.00003 -0)">
	</g>
    <path transform="matrix(1.5 0 0 1.5 128.00003 -0)"  d="M110.934 384L110.934 281.6C 110.934 276.887 114.755 273.06702 119.466995 273.06702L119.466995 273.06702L102.4 273.06702C 97.687004 273.06702 93.867004 276.88803 93.867004 281.6L93.867004 281.6L93.867004 384C 93.867004 388.713 97.688 392.533 102.4 392.533L102.4 392.533L119.467 392.533C 114.754 392.534 110.934 388.714 110.934 384z" stroke="none" fill="#FDD042" fill-rule="nonzero" />
	<g transform="matrix(1.5 0 0 1.5 128.00003 -0)">
	</g>
    <path transform="matrix(1.5 0 0 1.5 128.00003 -0)"  d="M170.667 273.067L136.53401 273.067L136.53401 315.73398C 136.53401 320.447 140.35501 324.26697 145.06702 324.26697L145.06702 324.26697L162.13402 324.26697C 166.84702 324.26697 170.66702 320.44595 170.66702 315.73398L170.66702 315.73398L170.66702 273.067L170.667 273.067z" stroke="none" fill="#F2C127" fill-rule="nonzero" />
	<g transform="matrix(1.5 0 0 1.5 128.00003 -0)">
	</g>
    <path transform="matrix(1.5 0 0 1.5 128.00003 -0)"  d="M170.667 375.467L136.53401 375.467C 131.82101 375.467 128.001 371.646 128.001 366.93402C 128.001 362.22205 131.822 358.40103 136.53401 358.40103L136.53401 358.40103L170.667 358.40103C 175.38 358.40103 179.20001 362.22205 179.20001 366.93402C 179.20001 371.646 175.38 375.467 170.667 375.467z" stroke="none" fill="#74757B" fill-rule="nonzero" />
	<g transform="matrix(1.5 0 0 1.5 128.00003 -0)">
	</g>
    <path transform="matrix(1.5 0 0 1.5 128.00003 -0)"  d="M324.267 392.534L221.867 392.534C 217.154 392.534 213.334 396.355 213.334 401.067L213.334 401.067L213.334 503.46698C 213.334 508.18 217.155 511.99997 221.867 511.99997L221.867 511.99997L324.267 511.99997C 328.98 511.99997 332.8 508.17896 332.8 503.46698L332.8 503.46698L332.8 401.067C 332.8 396.355 328.98 392.534 324.267 392.534z" stroke="none" fill="#FDDD85" fill-rule="nonzero" />
	<g transform="matrix(1.5 0 0 1.5 128.00003 -0)">
	</g>
    <path transform="matrix(1.5 0 0 1.5 128.00003 -0)"  d="M230.4 503.467L230.4 401.06702C 230.4 396.354 234.221 392.53403 238.933 392.53403L238.933 392.53403L221.866 392.53403C 217.153 392.53403 213.333 396.35504 213.333 401.06702L213.333 401.06702L213.333 503.467C 213.333 508.18002 217.15399 512 221.866 512L221.866 512L238.933 512C 234.221 512 230.4 508.181 230.4 503.467z" stroke="none" fill="#FDD042" fill-rule="nonzero" />
	<g transform="matrix(1.5 0 0 1.5 128.00003 -0)">
	</g>
    <path transform="matrix(1.5 0 0 1.5 128.00003 -0)"  d="M290.134 392.534L256 392.534L256 435.2C 256 439.91302 259.821 443.733 264.533 443.733L264.533 443.733L281.6 443.733C 286.31302 443.733 290.133 439.912 290.133 435.2L290.133 435.2L290.133 392.534L290.134 392.534z" stroke="none" fill="#F2C127" fill-rule="nonzero" />
	<g transform="matrix(1.5 0 0 1.5 128.00003 -0)">
	</g>
    <path transform="matrix(1.5 0 0 1.5 128.00003 -0)"  d="M290.134 494.934L256 494.934C 251.287 494.934 247.467 491.11298 247.467 486.401C 247.467 481.68903 251.288 477.868 256 477.868L256 477.868L290.133 477.868C 294.846 477.868 298.666 481.68903 298.666 486.401C 298.666 491.11298 294.846 494.934 290.134 494.934z" stroke="none" fill="#74757B" fill-rule="nonzero" />
</g>
</svg>