<svg xmlns="http://www.w3.org/2000/svg" width="14" height="22"><rect id="backgroundrect" width="100%" height="100%" x="0" y="0" fill="none" stroke="none"/>

 <g style="" class="currentLayer">
  <title>Layer 1</title>
  <g id="surface1" class="selected" fill="#ebeb1a" fill-opacity="1" stroke="#000000" stroke-opacity="1">
   <path id="svg_1" fill-rule="nonzero" fill="#ebeb1a" d="m9.10156,4.125c1.15625,0 2.09766,-0.92187 2.09766,-2.0625c0,-1.14062 -0.94141,-2.0625 -2.09766,-2.0625c-1.16015,0 -2.10156,0.92188 -2.10156,2.0625c0,1.14063 0.94141,2.0625 2.10156,2.0625zm4.13282,6.40625l-1.01954,-0.50781l-0.42578,-1.26172c-0.64062,-1.91797 -2.43359,-3.25781 -4.46875,-3.26172c-1.57422,-0.00391 -2.44531,0.43359 -4.08203,1.08203c-0.94531,0.375 -1.71875,1.08203 -2.17578,1.98438l-0.29297,0.58593c-0.33984,0.67969 -0.0664,1.50391 0.6211,1.84375c0.68359,0.33985 1.51562,0.0625 1.85937,-0.61328l0.29297,-0.58593c0.15234,-0.30079 0.40625,-0.53907 0.72266,-0.66016l1.17187,-0.46484l-0.66406,2.60937c-0.22656,0.89063 0.01562,1.83984 0.65234,2.52344l2.6211,2.8125c0.3125,0.33984 0.53515,0.74609 0.65234,1.1875l0.80078,3.15234c0.1875,0.73438 0.94922,1.1836 1.69531,1c0.75,-0.18359 1.20703,-0.93359 1.01953,-1.66797l-0.97265,-3.82422c-0.11328,-0.4414 -0.33594,-0.85546 -0.64844,-1.1875l-1.99219,-2.13671l0.75391,-2.95313l0.23828,0.71094c0.23438,0.6914 0.73047,1.26172 1.38672,1.58984l1.01953,0.50391c0.68359,0.33984 1.51563,0.0664 1.85938,-0.61328c0.33593,-0.67578 0.0625,-1.50782 -0.625,-1.84766zm-10.01563,6.04688c-0.14062,0.34765 -0.34766,0.66015 -0.62109,0.92187l-2.1875,2.15234c-0.54688,0.53907 -0.54688,1.41016 0,1.94922c0.54687,0.53516 1.43359,0.53516 1.98047,0l2.59765,-2.55468c0.26563,-0.26172 0.47656,-0.57422 0.6211,-0.92188l0.58984,-1.45312c-2.41797,-2.58985 -1.69141,-1.79688 -2.07422,-2.3086l-0.90625,2.21485zm0,0" fill-opacity="1" stroke="#000000" stroke-opacity="1"/>
  </g>
 </g>
</svg>